<svg xmlns="http://www.w3.org/2000/svg" width="933.333" height="933.333" version="1.0" viewBox="0 0 700 700"><path d="M85 70c-8.7 2.2-16.3 6.2-22.9 11.8C56.6 86.5 49.3 96.7 47 103c-3.6 10-3.6 11.5-3.4 249.5.1 255.1-.3 236 6 249 3.2 6.7 14.7 19 20.4 21.9 1.9 1 6.4 3 10 4.4l6.5 2.7 212.3.3c229.6.2 218.1.5 229.9-4.9 14.2-6.5 25.9-20.5 29.9-35.9 1.5-5.8 1.7-13.5 1.8-69.7.1-34.7.3-63.4.6-63.7 6.7-7 52.2-53.8 65-66.9 9.6-9.8 19.1-20.2 21.1-23.1 10-14.7 10.9-36.7 2.5-55.1-8.2-17.6-25.9-36.4-40.1-42.5-15.3-6.5-31.8-7.1-45.3-1.4-1.9.8-3.5 1.4-3.6 1.4s-.1-33.6-.1-74.8c0-41.1-.3-76.7-.7-79.2-2.5-14.9-10.6-28.5-21-35.6-2.4-1.6-4.5-3.2-4.8-3.5-.6-.8-6.8-3.5-13-5.7-4-1.4-26.1-1.6-217-1.7-196.5-.2-213.1-.1-219 1.5"/></svg>