<svg xmlns="http://www.w3.org/2000/svg" width="200" height="200" class="icon" viewBox="0 0 1024 1024"><path fill="#333" d="M932.571 54.857H91.43C71.2 54.857 54.857 71.2 54.857 91.43V932.57c0 20.229 16.343 36.572 36.572 36.572H932.57c20.229 0 36.572-16.343 36.572-36.572V91.43c0-20.229-16.343-36.572-36.572-36.572zm-45.714 832H137.143V137.143h749.714v749.714z"/><path fill="#E6E6E6" d="M137.143 886.857h749.714V137.143H137.143v749.714zm388-254.857H736.57c4.686 0 8.572 4.114 8.572 9.143V696c0 5.029-3.886 9.143-8.572 9.143H525.143c-4.686 0-8.572-4.114-8.572-9.143v-54.857c0-5.029 3.886-9.143 8.572-9.143m-246.286-7.657c0-2.629 1.257-5.257 3.314-6.972L407.657 512 282.171 406.629a8.72 8.72 0 0 1-3.314-6.972V328c0-7.771 9.029-12 14.972-6.971l219.428 183.885a9.06 9.06 0 0 1 0 14.057l-219.428 184c-5.943 5.029-14.972.8-14.972-6.971v-71.657z"/><path fill="#333" d="m293.829 702.971 219.428-184a9.06 9.06 0 0 0 0-14.057L293.83 321.03A9.086 9.086 0 0 0 278.857 328v71.657c0 2.743 1.143 5.257 3.314 6.972L407.657 512 282.171 617.371a9.257 9.257 0 0 0-3.314 6.972V696c0 7.771 9.029 12 14.972 6.971M516.57 696c0 5.029 3.886 9.143 8.572 9.143H736.57c4.686 0 8.572-4.114 8.572-9.143v-54.857c0-5.029-3.886-9.143-8.572-9.143H525.143c-4.686 0-8.572 4.114-8.572 9.143V696"/></svg>