<svg xmlns="http://www.w3.org/2000/svg" width="217.578" height="200" class="icon" viewBox="0 0 1114 1024"><path fill="#3AB3F0" d="M99.007 0h742.757a98.947 98.947 0 0 1 99.006 99.007v825.986A98.947 98.947 0 0 1 841.764 1024H99.007A98.947 98.947 0 0 1 0 924.993V99.007A98.947 98.947 0 0 1 99.007 0"/><path fill="#FFF" d="M544.625 470.564H231.174a41.317 41.317 0 0 0 0 82.575h313.57a41.317 41.317 0 1 0 0-82.575zM412.636 684.889H231.174a41.317 41.317 0 1 0 0 82.575h181.462a41.317 41.317 0 1 0 0-82.575zm297.08-429.008H231.173a41.317 41.317 0 0 0 0 82.575h478.541a41.317 41.317 0 1 0 0-82.575M1111.457 467.587a107.818 107.818 0 0 0-6.728-22.028v-.714a175.985 175.985 0 0 0-29.767-44.652 145.741 145.741 0 0 0-38.043-31.613 118.058 118.058 0 0 0-21.016-8.573 114.724 114.724 0 0 0-27.386-4.703h-3.75a95.732 95.732 0 0 0-60.607 21.79l-.595.476-.596.477c-4.822 4.107-10.597 9.346-16.789 15.419s-10.418 10.061-14.407 13.931l-4.108 3.989-2.977 3.096-31.97 30.482 1.25 1.25-2.62 2.739-112.103 115.914-42.27 43.639-38.043 39.293c-11.907 11.907-21.373 22.147-29.232 30.482l-12.561 13.157-1.727 1.846a134.49 134.49 0 0 0-17.86 22.028 145.087 145.087 0 0 0-10.3 19.646 175.926 175.926 0 0 0-9.228 23.814c-2.977 9.05-5.953 19.051-9.109 29.768s-5.953 20.42-8.454 30.124a248.082 248.082 0 0 0-6.489 29.113 76.205 76.205 0 0 0 13.455 60.428 65.131 65.131 0 0 0 53.105 24.528c3.632 0 7.442 0 11.43-.595h2.025c5.953-1.012 14.17-2.858 25.719-5.954 9.823-2.62 20.301-5.953 31.97-9.704s21.373-7.442 31.494-11.193 19.051-7.74 25.362-10.835a116.272 116.272 0 0 0 23.814-14.824c5.001-3.87 9.585-7.859 13.693-11.55s7.74-7.204 16.074-15.777 16.79-17.562 27.982-29.231c10.061-10.717 21.79-22.623 36.971-37.924l.357-.357v-.357l41.675-43.64 111.925-115.676 36.197-37.447.358-.357c3.215-2.858 6.727-5.954 10.3-9.943 2.262-2.262 4.822-5 7.858-7.858s7.62-7.561 11.907-11.907l.774-.774.774-.774a96.923 96.923 0 0 0 18.515-30.482 93.589 93.589 0 0 0 5.954-32.982 114.545 114.545 0 0 0-2.203-25.005z"/><path fill="#309EEF" d="m872.84 703.464-41.673 43.64a3753.258 3753.258 0 0 0-65.191 67.452c-7.323 7.62-11.907 11.907-13.038 12.92a186.523 186.523 0 0 1-11.907 10.18 67.215 67.215 0 0 1-14.05 8.692c-4.823 2.5-11.908 5.477-21.374 9.228s-19.17 7.084-29.767 10.478-20.004 6.37-29.232 8.811-16.074 4.108-20.658 4.822a46.497 46.497 0 0 1-5.597.358 15.717 15.717 0 0 1-13.038-4.585 26.374 26.374 0 0 1-2.62-19.884 197.418 197.418 0 0 1 4.942-21.909c2.62-9.585 5.358-19.408 8.335-29.767s5.954-19.766 8.573-28.34a116.51 116.51 0 0 1 6.847-17.86 94.422 94.422 0 0 1 7.084-13.693 87.576 87.576 0 0 1 11.193-13.693l14.645-15.42c7.62-8.096 17.146-17.86 28.756-29.767l38.043-39.293 42.27-43.639 112.104-115.914 97.518 101.21zm187.238-197.298a40.84 40.84 0 0 1-8.335 13.454c-4.108 4.347-7.977 8.097-11.192 11.312l-8.573 8.573a129.023 129.023 0 0 1-7.859 7.561l-97.518-100.733c4.227-3.989 9.228-8.692 14.824-14.288s10.597-9.943 14.288-13.158a47.628 47.628 0 0 1 15.063-8.334 45.96 45.96 0 0 1 13.931-2.263h1.488a62.095 62.095 0 0 1 14.527 2.382 77.395 77.395 0 0 1 11.907 4.822 96.327 96.327 0 0 1 24.23 20.659 125.678 125.678 0 0 1 20.66 30.958 58.344 58.344 0 0 1 3.333 11.311 68.525 68.525 0 0 1 1.37 13.455 38.102 38.102 0 0 1-2.144 14.289z" opacity=".48"/></svg>